<svg width="32" height="32" viewBox="0 0 32 32" fill="none" xmlns="http://www.w3.org/2000/svg">
<path fill-rule="evenodd" clip-rule="evenodd" d="M6.84152 9.47884C6.57104 9.39096 6.28638 9.56698 6.24415 9.84823L5.73752 13.223C5.66495 13.7065 5.95251 14.1715 6.41742 14.3225L23.6767 19.9304C24.4832 20.1925 25.3494 19.7511 25.6114 18.9446C25.8838 18.1063 25.396 17.2113 24.5439 16.9859L19.2322 15.5805L17.9041 6.20728C17.849 5.81838 17.5772 5.49483 17.2037 5.37345C16.5777 5.17006 15.9244 5.59886 15.862 6.2541L15.1019 14.2384L7.84571 12.2959L7.14239 9.79209C7.10078 9.64394 6.98787 9.52639 6.84152 9.47884ZM25.6776 22.9521H5.14758V24.5314H25.6776V22.9521Z" fill="#6E7491"/>
</svg>
